<?xml version="1.0" encoding="UTF-8"?>
<svg xmlns="http://www.w3.org/2000/svg" width="185" height="73">
  <g
     transform="matrix(3.8293065,0,0,3.8293065,-454.66639,-579.506)"
     id="g6804"
     style="stroke-width:0.26114389">
    <path
       style="fill:#26509e;fill-opacity:1;fill-rule:nonzero;stroke:none;stroke-width:0.34819186"
       d="m 484.16406,573.73242 c -8.09998,0 -15.5431,2.80242 -21.42578,7.48242 h 42.85156 c -5.88268,-4.68 -13.3258,-7.48242 -21.42578,-7.48242 z m -23.36718,9.14063 c -1.88935,1.74534 -3.58361,3.69891 -5.04493,5.82422 h 56.82227 c -1.46136,-2.12531 -3.15362,-4.07888 -5.04297,-5.82422 z m -6.1211,7.48047 c -1.11466,1.83598 -2.05639,3.78617 -2.8164,5.82617 h 6.89648 c -2.12134,-5.64397 -3.55274,-5.81836 -3.55274,-5.81836 0.003,-0.002 0.007,-0.004 0.0137,-0.008 z m 11.0918,0.002 c 1.82536,1.38266 3.23743,3.49622 4.35742,5.82422 h 8.75977 v -5.82422 z m 23.38281,0 v 5.82422 h 8.66797 l 2.62305,-5.82422 z m 23.95313,0 -2.62305,5.82422 h 5.99219 c -0.75999,-2.03868 -1.7037,-3.9882 -2.81836,-5.82422 z m -61.81836,7.48242 c -0.59199,1.87733 -1.01984,3.82421 -1.28516,5.82422 h 11.33594 c -0.336,-0.80803 -0.64189,-1.62365 -0.92188,-2.43164 -0.0575,-0.17084 -0.11442,-0.33 -0.17187,-0.49414 -0.30955,-1.076 -0.60912,-2.03444 -0.89844,-2.89844 z m 19.57812,0 c 0.33071,0.79733 0.63027,1.60365 0.90625,2.40234 0.0601,0.16933 0.11638,0.32931 0.17383,0.4961 h 0.002 c 0.31333,1.08665 0.61683,2.05572 0.91016,2.92773 h 6.0293 v -5.82617 z m 18.28906,0 v 5.82422 h 5.29688 l 2.62305,-5.82422 z m 20.58204,0 -2.62305,5.82422 h 11.21875 c -0.26532,-2.00001 -0.69449,-3.94685 -1.28516,-5.82422 z m -59.91211,7.48242 c -0.0813,0.96133 -0.13282,1.92943 -0.13282,2.91211 0,0.98268 0.0516,1.95274 0.13282,2.91406 h 16.63476 c -1.83598,-1.37733 -3.25418,-3.49416 -4.38086,-5.82617 z m 23.62109,0 c 2.11468,5.612 3.54297,5.78907 3.54297,5.78907 -0.0265,0.0113 -0.0489,0.022 -0.0742,0.0371 h 1.9707 v -5.82617 z m 15.70898,0 v 5.82617 h 1.92774 l 2.62304,-5.82617 z m 17.21289,0 -2.62304,5.82617 h 14.76562 c 0.0801,-0.96 0.13086,-1.93138 0.13086,-2.91406 0,-0.98268 -0.0507,-1.95078 -0.13086,-2.91211 z M 450,612.80469 c 0.26532,1.99865 0.69449,3.94685 1.28516,5.82422 h 27.59961 v -5.82422 z m 39.15234,0 v 5.82422 h 27.89258 c 0.59199,-1.87733 1.01922,-3.82421 1.2832,-5.82422 z m -37.29492,7.48242 c 0.75999,2.03868 1.70175,3.99015 2.81641,5.82617 h 24.20898 v -5.82617 z m 37.29492,0 v 5.82422 h 24.50196 c 1.11333,-1.83598 2.05837,-3.78554 2.81836,-5.82422 z m -33.40039,7.48242 c 1.46268,2.12667 3.15558,4.0795 5.04493,5.82617 h 18.08789 v -5.82617 z m 33.39844,0 v 5.82617 h 18.38086 c 1.88935,-1.74667 3.58224,-3.6995 5.04492,-5.82617 z M 462.73828,635.25 c 5.88401,4.68132 13.3258,7.48633 21.42578,7.48633 8.09998,0 15.54373,-2.80501 21.42774,-7.48633 z"
       id="path4764"
       transform="scale(0.26458333)" />
    <path
       style="fill:#231f20;fill-opacity:1;fill-rule:nonzero;stroke:none;stroke-width:0.34819186"
       d="m 572.41797,592.33203 c -2.21337,0 -3.93945,1.53773 -3.93945,3.81641 0,2.26798 1.72608,3.81836 3.93945,3.81836 1.83598,0 2.7994,-1.0304 3.27539,-1.98242 l -1.63867,-0.77344 c -0.24401,0.58533 -0.87409,1.07226 -1.63672,1.07226 -1.15068,0 -2.00195,-0.92943 -2.00195,-2.13476 0,-1.20533 0.85127,-2.13672 2.00195,-2.13672 0.76263,0 1.39256,0.48888 1.63672,1.07422 l 1.63867,-0.77344 c -0.48669,-0.97334 -1.43941,-1.98047 -3.27539,-1.98047 z m -40.41211,0.12109 -2.77734,7.37891 h 2.06836 l 0.37695,-1.11719 h 3.0625 l 0.37695,1.11719 h 2.06836 l -2.78711,-7.37891 z m 6.76953,0 v 7.37891 h 1.90234 v -4.97851 l 1.85938,4.97851 h 0.8418 l 1.86914,-4.97851 v 4.97851 h 1.90234 v -7.37891 h -2.64453 l -1.54883,4.18165 -1.53711,-4.18165 z m 10.53125,0 v 7.37891 h 5.41016 v -1.60351 h -3.50782 v -1.32813 h 3.42969 v -1.61523 h -3.42969 v -1.22852 h 3.50782 v -1.60352 z m 7.34766,0 v 7.37891 h 1.90234 v -2.5 h 0.97266 l 1.23828,2.5 h 2.17969 l -1.50391,-2.71094 c 0.68666,-0.24264 1.4707,-0.92824 1.4707,-2.21093 0,-1.37201 -0.92907,-2.45704 -2.5664,-2.45704 z m 8.14062,0 v 7.37891 h 1.9043 v -7.37891 z m 14.44922,0 -2.77734,7.37891 h 2.06836 l 0.37695,-1.11719 h 3.06445 l 0.375,1.11719 h 2.07032 l -2.78907,-7.37891 z m 6.54883,0 v 7.37891 h 1.90234 v -4.45898 l 3.1211,4.45898 h 1.83593 v -7.37891 h -1.91406 v 4.24805 L 587.75,592.45312 Z m -27.23633,1.60352 h 1.50391 c 0.49863,0 0.91797,0.32207 0.91797,0.83008 0,0.5094 -0.41934,0.83008 -0.91797,0.83008 h -1.50391 z m -25.35742,0.0566 1.04101,2.99805 h -2.07031 z m 47.24023,0 1.03907,2.99805 h -2.07032 z"
       transform="scale(0.26458333)"
       id="path4872" />
    <path
       style="fill:#231f20;fill-opacity:1;fill-rule:nonzero;stroke:none;stroke-width:0.34819186"
       d="m 556.64258,605.60742 c -2.21337,0 -3.93946,1.53773 -3.93946,3.81641 0,2.26798 1.72609,3.81836 3.93946,3.81836 1.83598,0 2.7994,-1.0304 3.27539,-1.98242 l -1.63867,-0.77344 c -0.24401,0.58533 -0.87409,1.07226 -1.63672,1.07226 -1.15068,0 -2.00196,-0.92943 -2.00196,-2.13476 10e-6,-1.20533 0.85128,-2.13477 2.00196,-2.13477 0.76263,0 1.39256,0.48693 1.63672,1.07227 l 1.63867,-0.77344 c -0.48801,-0.97334 -1.43941,-1.98047 -3.27539,-1.98047 z m 17.52344,0 c -2.25733,0 -3.94922,1.56974 -3.94922,3.81641 0,2.24534 1.69189,3.8164 3.94922,3.8164 2.25732,0 3.9375,-1.57106 3.9375,-3.8164 0,-2.24667 -1.68018,-3.81641 -3.9375,-3.81641 z m 15.7207,0 c -2.25732,0 -3.94922,1.56974 -3.94922,3.81641 0,2.24534 1.6919,3.8164 3.94922,3.8164 2.25732,0 3.9375,-1.57106 3.9375,-3.8164 0,-2.24667 -1.68018,-3.81641 -3.9375,-3.81641 z m 9.34766,0 c -2.20135,0 -3.99415,1.4711 -3.99415,3.81641 0,2.34535 1.7928,3.8164 3.99415,3.8164 1.39468,0 2.46634,-0.56416 3.26367,-1.4375 v -2.88671 h -3.5625 v 1.58007 h 1.69336 v 0.6211 c -0.2987,0.24385 -0.81986,0.4414 -1.39453,0.4414 -1.20533,0 -2.05665,-0.92943 -2.05665,-2.13476 0,-1.20665 0.85132,-2.13477 2.05665,-2.13477 0.69732,0 1.26196,0.38835 1.56054,0.875 l 1.5918,-0.84179 c -0.54267,-0.91866 -1.53769,-1.71485 -3.15234,-1.71485 z m 12.83203,0 c -2.21201,0 -3.9375,1.53773 -3.9375,3.81641 0,2.26798 1.72549,3.81836 3.9375,3.81836 1.83598,0 2.79939,-1.0304 3.27539,-1.98242 l -1.63672,-0.77344 c -0.24401,0.58533 -0.87604,1.07226 -1.63867,1.07226 -1.15068,0 -2.00196,-0.92943 -2.00196,-2.13476 0,-1.20533 0.85128,-2.13477 2.00196,-2.13477 0.76263,0 1.39451,0.48693 1.63867,1.07227 l 1.63672,-0.77344 c -0.48669,-0.97334 -1.43941,-1.98047 -3.27539,-1.98047 z m -71.4668,0.0117 c -1.89067,0 -2.94141,1.07188 -2.94141,2.31055 0,1.74799 1.70261,2.06009 2.91992,2.30273 0.78535,0.16664 1.26172,0.33197 1.26172,0.75196 0,0.35478 -0.39877,0.63085 -1.05078,0.63085 -1.008,0 -1.82541,-0.44392 -2.35742,-0.97461 l -1.00586,1.42774 c 0.74136,0.70802 1.78011,1.17187 3.27344,1.17187 1.98002,0 3.07617,-0.98548 3.07617,-2.46679 0,-1.67067 -1.68241,-2.02412 -2.89844,-2.27735 -0.81864,-0.15598 -1.27148,-0.28777 -1.27148,-0.67578 0,-0.3199 0.24239,-0.57617 0.87305,-0.57617 0.65332,0 1.46008,0.2557 2.08007,0.76367 l 1.04102,-1.35937 c -0.78531,-0.6748 -1.81603,-1.0293 -3,-1.0293 z m -10.58594,0.10938 v 7.3789 h 1.90235 v -2.5 h 1.79296 c 1.66001,0 2.56641,-1.0939 2.56641,-2.42187 0,-1.33867 -0.9064,-2.45703 -2.56641,-2.45703 z m 31.55078,0 v 7.3789 h 1.90235 v -2.96484 h 3.0664 v 2.96484 h 1.90235 v -7.3789 h -1.90235 v 2.7539 h -3.0664 v -2.7539 z m 18.33203,0 v 7.3789 h 4.86719 v -1.6582 h -2.96484 v -5.7207 z m 24.54883,0 v 7.3789 h 1.90235 v -7.3789 z m 20.9961,0 v 7.3789 h 4.86914 v -1.6582 h -2.96485 v -5.7207 z m -80.78125,0.002 2.79882,4.40234 v 2.97461 h 1.90235 v -2.97461 l 2.78906,-4.40234 h -2.1582 l -1.58008,2.7207 -1.60547,-2.7207 z m 74.23242,0 -2.77539,7.37695 h 2.06836 l 0.375,-1.11719 h 3.0664 l 0.375,1.11719 h 2.07032 l -2.78907,-7.37695 z m -44.72656,1.55859 c 1.21734,0 2.00195,0.92812 2.00195,2.13477 0,1.19467 -0.78461,2.13476 -2.00195,2.13476 -1.22801,0 -2.01368,-0.94009 -2.01368,-2.13476 0,-1.20665 0.78567,-2.13477 2.01368,-2.13477 z m 15.7207,0 c 1.21599,0 2,0.92812 2,2.13477 0,1.19467 -0.78401,2.13476 -2,2.13476 -1.22801,0 -2.01367,-0.94009 -2.01367,-2.13476 0,-1.20665 0.78566,-2.13477 2.01367,-2.13477 z m -57.9707,0.0449 h 1.5371 c 0.50926,0 0.88672,0.33052 0.88672,0.83985 0,0.49742 -0.37739,0.81836 -0.88672,0.81836 h -1.5371 z m 88.17187,0.0547 1.04102,2.99805 h -2.07032 z"
       transform="scale(0.26458333)"
       id="path4926" />
    <path
       style="fill:#231f20;fill-opacity:1;fill-rule:nonzero;stroke:none;stroke-width:0.34819186"
       d="m 557.15039,618.88281 c -2.25732,0 -3.94922,1.56974 -3.94922,3.81641 0,2.24534 1.6919,3.8164 3.94922,3.8164 2.256,0 3.93945,-1.57106 3.93945,-3.8164 0,-2.24667 -1.68345,-3.81641 -3.93945,-3.81641 z m 9.07227,0 c -2.21201,0 -3.93946,1.53773 -3.93946,3.81641 0,2.26798 1.72745,3.81836 3.93946,3.81836 1.83598,0 2.79939,-1.0304 3.27539,-1.98242 l -1.63867,-0.77344 c -0.24401,0.58533 -0.87409,1.07226 -1.63672,1.07226 -1.15068,0 -2.00196,-0.92943 -2.00196,-2.13476 0,-1.20533 0.85128,-2.13477 2.00196,-2.13477 0.76263,0 1.39256,0.48693 1.63672,1.07227 l 1.63867,-0.77344 c -0.48669,-0.97334 -1.43941,-1.98047 -3.27539,-1.98047 z m 32.03711,0 c -2.25733,0 -3.94922,1.56974 -3.94922,3.81641 0,2.24534 1.69189,3.8164 3.94922,3.8164 2.25732,0 3.93945,-1.57106 3.93945,-3.8164 0,-2.24667 -1.68213,-3.81641 -3.93945,-3.81641 z m -57.10547,0.0117 c -1.89067,0 -2.94336,1.07188 -2.94336,2.31055 0,1.74799 1.70456,2.06009 2.92187,2.30273 0.78535,0.16664 1.25977,0.33197 1.25977,0.75196 0,0.35478 -0.39682,0.63085 -1.04883,0.63085 -1.008,0 -1.82542,-0.44392 -2.35742,-0.9746 l -1.00781,1.42773 c 0.74135,0.70934 1.78206,1.17187 3.27539,1.17187 1.98002,1e-5 3.07617,-0.98548 3.07617,-2.46679 0,-1.67067 -1.68241,-2.02412 -2.89844,-2.27735 -0.81865,-0.15598 -1.27344,-0.28777 -1.27344,-0.67578 0,-0.3199 0.2424,-0.57617 0.87305,-0.57617 0.65333,0 1.46008,0.2557 2.08008,0.76367 l 1.04101,-1.35937 c -0.78531,-0.6748 -1.81407,-1.0293 -2.99804,-1.0293 z m 7.5332,0 c -1.89203,0 -2.94336,1.07188 -2.94336,2.31055 0,1.74799 1.70394,2.06009 2.91992,2.30273 0.78667,0.16664 1.26172,0.33197 1.26172,0.75196 0,0.35478 -0.39745,0.63085 -1.05078,0.63085 -1.00668,0 -1.82479,-0.44392 -2.35547,-0.9746 l -1.00781,1.42773 c 0.74135,0.70934 1.78206,1.17187 3.27539,1.17187 1.98002,1e-5 3.07617,-0.98548 3.07617,-2.46679 0,-1.67067 -1.68241,-2.02412 -2.89844,-2.27735 -0.81864,-0.15598 -1.27148,-0.28777 -1.27148,-0.67578 0,-0.3199 0.24239,-0.57617 0.87305,-0.57617 0.652,0 1.46008,0.2557 2.08007,0.76367 l 1.03907,-1.35937 c -0.78531,-0.6748 -1.81408,-1.0293 -2.99805,-1.0293 z m 22.45703,0.10938 v 7.3789 h 1.90235 v -7.3789 z m 11.71485,0 v 1.66015 h 2.07031 v 5.72071 h 1.90234 v -5.72071 h 2.05664 v -1.66015 z m 7.76757,0 v 7.3789 h 1.90235 v -7.3789 z m 13.36328,0 v 7.38086 h 1.90235 v -4.45899 l 3.12109,4.45899 h 1.83594 v -7.38086 h -1.91406 v 4.25 l -2.98633,-4.25 z m -71.98437,0.002 -2.77734,7.37695 h 2.06836 l 0.37695,-1.11719 h 3.0625 l 0.37695,1.11719 h 2.06836 l -2.78711,-7.37695 z m 45.41211,0 -2.77735,7.37695 h 2.07032 l 0.375,-1.11719 h 3.06445 l 0.37695,1.11719 h 2.06836 l -2.78711,-7.37695 z m -20.26758,1.55859 c 1.21599,0 2.00195,0.92812 2.00195,2.13477 0,1.19467 -0.78596,2.13476 -2.00195,2.13476 -1.22801,0 -2.01367,-0.94009 -2.01367,-2.13476 0,-1.20665 0.78566,-2.13477 2.01367,-2.13477 z m 41.10938,0 c 1.21734,0 2.00195,0.92812 2.00195,2.13477 0,1.19467 -0.78461,2.13476 -2.00195,2.13476 -1.22801,0 -2.01368,-0.94009 -2.01368,-2.13476 0,-1.20665 0.78567,-2.13477 2.01368,-2.13477 z m -65.06055,0.0996 1.04101,2.99805 h -2.07031 z m 45.41406,0 1.03906,2.99805 h -2.06836 z"
       transform="scale(0.26458333)"
       id="path5008" />
  </g>
</svg>
